<?xml version="1.0" encoding="utf-8"?>
<!-- Generator: Adobe Illustrator 26.4.1, SVG Export Plug-In . SVG Version: 6.00 Build 0)  -->
<svg version="1.1" id="Layer_1" xmlns="http://www.w3.org/2000/svg" xmlns:xlink="http://www.w3.org/1999/xlink" x="0px" y="0px"
	 viewBox="0 0 448 512" style="enable-background:new 0 0 448 512;" xml:space="preserve">
<style type="text/css">
	.st0{fill:#0B9F47;}
</style>
<path class="st0" d="M96,224c-11.3,0-21.9,2.3-32,5.9V224c0-35.3,28.7-64,64-64c17.7,0,32-14.3,32-32s-14.3-32-32-32
	C57.4,96,0,153.4,0,224v96c0,53,43,96,96,96s96-43,96-96S149,224,96,224z M352,224c-11.3,0-22,2.3-32,5.9V224c0-35.3,28.7-64,64-64
	c17.7,0,32-14.3,32-32s-14.3-32-32-32c-70.6,0-128,57.4-128,128v96c0,53,43,96,96,96s96-43,96-96S405,224,352,224z"/>
</svg>
