<?xml version="1.0" encoding="utf-8"?>
<!-- Generator: Adobe Illustrator 24.2.1, SVG Export Plug-In . SVG Version: 6.00 Build 0)  -->
<svg version="1.1" id="Layer_1" xmlns="http://www.w3.org/2000/svg" xmlns:xlink="http://www.w3.org/1999/xlink" x="0px" y="0px"
	 viewBox="0 0 295.2 85.4" style="enable-background:new 0 0 295.2 85.4;" xml:space="preserve">
<style type="text/css">
	.st0{display:none;}
	.st1{fill-rule:evenodd;clip-rule:evenodd;fill:#FFFFFF;}
	.st2{fill-rule:evenodd;clip-rule:evenodd;fill:#61A945;}
	.st3{fill-rule:evenodd;clip-rule:evenodd;fill:#62A945;}
</style>
<g id="Background_xA0_Image_1_" class="st0">
	
		<image style="display:inline;overflow:visible;enable-background:new    ;" width="1308" height="458" id="Background_xA0_Image" xlink:href="E794B4761EF54E00.jpeg"  transform="matrix(0.2374 0 0 0.2374 -7.7465 -11.8)">
	</image>
</g>
<g id="BG_xA0_Image_1_" class="st0">
	
		<image style="display:inline;overflow:visible;enable-background:new    ;" width="1308" height="458" id="BG_xA0_Image" xlink:href="E794B4761EF54E00.png"  transform="matrix(0.2257 0 0 0.1865 0 0)">
	</image>
</g>
<g id="Logo_1_">
	<g id="C">
		<g>
			<path class="st1" d="M44.5,77.7c-10.4,0-18.9-3.3-25.7-10C12,61.1,8.6,52.8,8.6,42.9c0-6.6,1.5-12.5,4.6-17.7
				c3-5.3,7.3-9.4,12.8-12.6c5.5-3.1,11.5-4.7,18-4.7c5.9,0,11.4,1.2,16.3,3.6c5,2.4,9.2,5.9,12.7,10.5l6.4-4.9
				c-3.9-5.4-8.9-9.6-15-12.6S51.4,0,43.8,0c-12.6,0-23,4.1-31.4,12.2C4.2,20.3,0,30.3,0,42.2c0,11.3,3.4,21,10.3,29
				c8.2,9.5,19.4,14.2,33.7,14.2c7.5,0,14.2-1.4,20.3-4.2c6.1-2.8,11.1-6.8,15.2-12l-6.4-4.9C65.4,73.3,55.9,77.7,44.5,77.7z"/>
		</g>
	</g>
	<g id="c">
		<g>
			<path class="st2" d="M43.9,15.3c-9.6,0-18,4.6-23.2,11.6l4.8,3.6c4.1-5.5,10.7-9.2,18.3-9.2c12.4,0,22.4,9.8,22.4,21.9
				s-10,21.9-22.4,21.9c-7.4,0-14-3.5-18.1-8.9L21,59.7c5.2,6.8,13.5,11.2,22.9,11.2c15.8,0,28.6-12.4,28.6-27.7
				C72.4,27.7,59.7,15.3,43.9,15.3z"/>
		</g>
	</g>
	<g id="Cyber">
		<g>
			<path class="st3" d="M110.1,54.5c-1.6,1.4-3.7,2.1-6,2.1c-2,0-3.8-0.5-5.4-1.5c-1.7-1-2.9-2.5-3.7-4.6c-0.8-2-1.2-4.4-1.2-7.1
				c0-2.1,0.3-4.2,1-6.2s1.8-3.6,3.5-4.8s3.7-1.8,6.2-1.8c2.1,0,3.9,0.5,5.3,1.6s2.5,2.8,3.2,5.1l4.2-1c-0.9-3-2.4-5.3-4.6-6.9
				c-2.2-1.6-4.9-2.4-8.1-2.4c-2.8,0-5.4,0.6-7.8,1.9c-2.4,1.3-4.2,3.2-5.4,5.7c-1.3,2.5-1.9,5.4-1.9,8.7c0,3.1,0.6,5.9,1.7,8.6
				c1.1,2.7,2.8,4.7,4.9,6.1c2.2,1.4,5,2.1,8.4,2.1c3.3,0,6.2-0.9,8.5-2.7c2.3-1.8,3.9-4.5,4.8-8l-4.2-1.1
				C112.9,51.1,111.8,53.1,110.1,54.5z M129.9,49.9c-0.6,1.7-1.2,3.5-1.6,5.3c-0.5-1.9-1.1-3.7-1.7-5.4l-4.8-13.4h-4.2l8.8,23.2
				c-0.2,0.4-0.3,0.7-0.3,1c-0.6,1.6-1,2.5-1.2,2.9c-0.3,0.5-0.8,0.9-1.3,1.2c-0.5,0.3-1.2,0.4-2.1,0.4c-0.6,0-1.4-0.1-2.2-0.3
				l0.4,3.7c0.9,0.3,1.8,0.5,2.5,0.5c1.3,0,2.3-0.3,3.2-0.9s1.7-1.6,2.4-2.9c0.5-1,1.3-2.7,2.2-5.3l8.8-23.6h-3.9L129.9,49.9z
				 M192.3,35.9c-0.9,0-1.8,0.3-2.5,0.8c-0.8,0.5-1.6,1.6-2.5,3.3v-3.5h-3.5v23.2h3.9V47.5c0-1.7,0.2-3.2,0.7-4.6
				c0.3-0.9,0.8-1.6,1.5-2.2c0.7-0.5,1.5-0.8,2.3-0.8c1,0,1.9,0.3,2.9,0.9l1.4-3.6C195,36.3,193.6,35.9,192.3,35.9z M171.1,35.9
				c-3.2,0-5.8,1.1-7.8,3.2c-2,2.2-3,5.2-3,9.1c0,3.8,1,6.7,3,8.8c2,2.1,4.7,3.1,8.1,3.1c2.7,0,4.9-0.7,6.6-2
				c1.7-1.3,2.9-3.2,3.6-5.5l-4.1-0.5c-0.6,1.7-1.4,2.9-2.4,3.6c-1,0.8-2.2,1.1-3.7,1.1c-1.9,0-3.6-0.7-4.8-2
				c-1.3-1.4-2-3.3-2.2-5.9h17.3c0-0.5,0-0.8,0-1c0-3.8-1-6.8-2.9-8.9C176.8,36.9,174.2,35.9,171.1,35.9z M164.6,45.8
				c0.1-2,0.8-3.6,2-4.9c1.2-1.2,2.7-1.8,4.6-1.8c2,0,3.6,0.8,4.9,2.3c0.8,1,1.3,2.4,1.5,4.4H164.6z M156.9,39.2
				c-0.8-1-1.9-1.8-3.1-2.4c-1.3-0.6-2.6-0.9-4.1-0.9c-2.6,0-4.7,1-6.4,3.1V27.6h-3.9v32h3.6v-2.9c1.6,2.3,3.7,3.4,6.4,3.4
				c2.8,0,5.1-1.1,7.1-3.3c2-2.2,2.9-5.2,2.9-9.2c0-1.7-0.2-3.2-0.7-4.7C158.3,41.5,157.7,40.2,156.9,39.2z M153.6,54.7
				c-1.3,1.5-2.7,2.2-4.5,2.2c-2.1,0-3.8-1-5-3c-0.8-1.2-1.1-3.2-1.1-6s0.6-5,1.9-6.5c1.3-1.5,2.7-2.2,4.5-2.2
				c1.7,0,3.2,0.7,4.4,2.2c1.2,1.4,1.8,3.7,1.8,6.7C155.5,50.9,154.9,53.2,153.6,54.7z"/>
		</g>
	</g>
	<g id="Optik.">
		<g>
			<path class="st1" d="M246.3,37.4c-1.5-1-3.3-1.5-5.2-1.5c-1.5,0-2.8,0.3-3.9,0.9c-1.1,0.6-2,1.5-2.9,2.7v-3h-3.6v32.1h3.9V57.2
				c0.7,0.8,1.5,1.5,2.6,2.1c1,0.6,2.2,0.8,3.5,0.8c1.8,0,3.5-0.5,5.1-1.5c1.6-1,2.9-2.5,3.7-4.4s1.3-4,1.3-6.4
				c0-2.2-0.4-4.3-1.2-6.1C249,39.9,247.8,38.4,246.3,37.4z M245,54.7c-1.2,1.5-2.7,2.2-4.5,2.2c-1.7,0-3.2-0.7-4.4-2.1
				s-1.8-3.6-1.8-6.6s0.6-5.3,1.9-6.8c1.3-1.6,2.8-2.3,4.4-2.3c1.7,0,3.1,0.7,4.4,2.2c1.2,1.5,1.8,3.7,1.8,6.6
				C246.9,50.9,246.3,53.2,245,54.7z M221.2,29.1c-2.4-1.4-5-2.1-8-2.1c-4.5,0-8.2,1.5-11,4.5c-2.9,3-4.3,7.2-4.3,12.5
				c0,2.8,0.6,5.5,1.8,8s3,4.5,5.4,6s5.1,2.2,8.1,2.2c2.8,0,5.4-0.7,7.8-2c2.4-1.3,4.3-3.3,5.6-5.8c1.3-2.6,2-5.5,2-8.7
				s-0.6-6.1-1.9-8.6C225.4,32.5,223.6,30.5,221.2,29.1z M221,53.2c-2.1,2.2-4.7,3.4-7.9,3.4c-3.1,0-5.7-1.1-7.8-3.3
				c-2.1-2.2-3.1-5.3-3.1-9.1c0-4.8,1.1-8.3,3.2-10.3c2.2-2.1,4.7-3.1,7.7-3.1c2.1,0,4,0.5,5.7,1.6s3,2.6,3.9,4.5s1.3,4.2,1.3,6.8
				C224.1,47.7,223.1,50.9,221,53.2z M288.3,36.4h-5.1l-9.3,9.4V27.6H270v32h3.9v-9.2l2.8-2.7l7.7,11.9h4.8L279.4,45L288.3,36.4z
				 M259.8,56.2c-0.6,0-1-0.1-1.3-0.3c-0.3-0.2-0.5-0.4-0.7-0.8c-0.1-0.3-0.2-1-0.2-2.2V39.5h4v-3.1h-4v-8.1l-3.9,2.4v5.7h-2.9v3.1
				h2.9v13.4c0,2.4,0.2,3.9,0.5,4.6s0.9,1.3,1.7,1.8c0.8,0.5,1.9,0.7,3.3,0.7c0.9,0,1.9-0.1,3-0.3l-0.6-3.5
				C260.8,56.2,260.3,56.2,259.8,56.2z M262.7,32.1h3.9v-4.5h-3.9V32.1z M290.7,55.1v4.5h4.5v-4.5H290.7z M262.7,59.6h3.9V36.4h-3.9
				V59.6z"/>
		</g>
	</g>
</g>
</svg>
